<svg xmlns="http://www.w3.org/2000/svg" viewBox="0 0 88 96" aria-hidden="true">
  <g fill="#ffffff">
    <path d="M44 2.5a2.4 2.4 0 0 0-2.2 1.4L35.8 15a2 2 0 0 0 1.8 2.9h12.8a2 2 0 0 0 1.8-2.9L46.2 3.9A2.4 2.4 0 0 0 44 2.5z"/>
    <path fill="none" stroke="#ffffff" stroke-width="1.5" stroke-linecap="round" d="M44 7v8M37 8l-6 9M51 8l6 9"/>
    <path d="M50 17c8.8 1.2 15.2 8.5 16 17.8 1 11.2-6 22.2-15.8 27.4-4.8 2.5-9.2.8-9.2-4.6V54c6.2-2.2 10-8 10-14.3 0-4.8-2.4-8.8-6-11.4-1.4-1-3-1.6-4.8-1.8z"/>
    <path d="M38 17C26.8 17.5 18.5 26 17.5 37.5 16.2 50.5 24 62.5 36 67.5c7 3 12.5-.2 12.5-7.5 0-5.4-3.6-10.2-7.8-12.2.8-11.2-.8-20.5-5.8-25.5-2.4-2.6-5.8-4-9.4-4.3z"/>
    <path d="M32.5 37.5c-5.5 2-8.5 7.2-7.2 12.8 1.5 6.2 7.2 9.8 12.8 8 4.8-1.5 7.5-6.2 6.5-11.2-1.2-5.4-6.2-9-12.1-9.6z"/>
    <path fill="none" stroke="#ffffff" stroke-width="1.35" stroke-linecap="round" stroke-opacity="0.55" d="M27.5 34.5c3.8 9.2 8.8 17 15.5 22.5"/>
    <path fill="none" stroke="#ffffff" stroke-width="1.35" stroke-linecap="round" stroke-opacity="0.55" d="M53.5 33c2.8 9.8 4.2 18.2 3.8 26.5"/>
  </g>
</svg>
