<svg class="home-accordion__boxing-icon" xmlns="http://www.w3.org/2000/svg" viewBox="0 0 80 72" aria-hidden="true">
  <g fill="#ffffff">
    <path d="M36 2h8c2.2 0 4 1.8 4 4v4H32V6c0-2.2 1.8-4 4-4z"/>
    <path d="M8 18h24c7.7 0 14 6.3 14 14v20c0 11-9 20-20 20S6 63 6 52V32c0-7.7 6.3-14 14-14z"/>
    <path d="M26 30c3.8 2.2 5.8 6.6 4.8 10.8-1.2 5.2-6.4 8.4-11.2 7-4-.9-6.8-4.8-6.4-9 .3-3.2 2.4-6 5.4-7.4 2.3-1 4.9-1.2 7.4-.4z"/>
    <path d="M48 18h24c7.7 0 14 6.3 14 14v20c0 11-9 20-20 20S42 63 42 52V32c0-7.7 6.3-14 14-14z"/>
    <path d="M54 30c-3.8 2.2-5.8 6.6-4.8 10.8 1.2 5.2 6.4 8.4 11.2 7 4-.9 6.8-4.8 6.4-9-.3-3.2-2.4-6-5.4-7.4-2.3-1-4.9-1.2-7.4-.4z"/>
  </g>
</svg>
